<mxfile host="app.diagrams.net" modified="2023-11-06T03:44:20.898Z" agent="Mozilla/5.0 (Windows NT 10.0; Win64; x64) AppleWebKit/537.36 (KHTML, like Gecko) Chrome/119.0.0.0 Safari/537.36" version="21.6.8" etag="7m1gXui8gfd7krDGsuN3" type="github">
  <diagram name="第 1 页" id="09G4bClJPfwdMOJTZsi3">
    <mxGraphModel>
      <root>
        <mxCell id="0" />
        <mxCell id="1" parent="0" />
      </root>
    </mxGraphModel>
  </diagram>
</mxfile>
